<svg width="205" height="43" viewBox="0 0 205 43" fill="none" xmlns="http://www.w3.org/2000/svg">
<g clip-path="url(#clip0_376_7419)">
<path d="M9.98153 34.6221L9.98153 8.44025L20.7969 8.44025C22.7571 8.44025 24.4489 8.79395 25.8722 9.50133C27.304 10.2002 28.4077 11.2059 29.1832 12.5184C29.9588 13.8224 30.3466 15.3692 30.3466 17.159C30.3466 18.9743 29.9503 20.517 29.1577 21.7868C28.3651 23.0482 27.2401 24.0113 25.7827 24.676C24.3253 25.3323 22.5994 25.6604 20.6051 25.6604L13.7656 25.6604L13.7656 20.6746L19.429 20.6746C20.3835 20.6746 21.1804 20.551 21.8196 20.3039C22.4673 20.0482 22.9574 19.6647 23.2898 19.1533C23.6222 18.6334 23.7884 17.9687 23.7884 17.159C23.7884 16.3493 23.6222 15.6803 23.2898 15.1519C22.9574 14.615 22.4673 14.2144 21.8196 13.9502C21.1719 13.6775 20.375 13.5411 19.429 13.5411L16.3097 13.5411L16.3097 34.6221L9.98153 34.6221ZM24.7216 22.6562L31.2415 34.6221L24.3381 34.6221L17.946 22.6562L24.7216 22.6562ZM50.3681 8.44025L56.6834 8.44025L56.6834 25.328C56.6834 27.2797 56.2189 28.98 55.2899 30.4289C54.361 31.8692 53.0655 32.9857 51.4036 33.7783C49.7416 34.5624 47.8113 34.9545 45.6124 34.9545C43.388 34.9545 41.4448 34.5624 39.7828 33.7783C38.1209 32.9857 36.8297 31.8692 35.9093 30.4289C34.9888 28.98 34.5286 27.2797 34.5286 25.328L34.5286 8.44025L40.8567 8.44025L40.8567 24.7783C40.8567 25.6817 41.0527 26.4871 41.4448 27.1945C41.8453 27.9019 42.4036 28.4559 43.1195 28.8564C43.8354 29.257 44.6664 29.4573 45.6124 29.4573C46.5584 29.4573 47.3851 29.257 48.0925 28.8564C48.8084 28.4559 49.3666 27.9019 49.7672 27.1945C50.1678 26.4871 50.3681 25.6817 50.3681 24.7783L50.3681 8.44025ZM75.5128 16.2897C75.4275 15.3522 75.0483 14.6235 74.375 14.1036C73.7102 13.5752 72.7599 13.311 71.5241 13.311C70.706 13.311 70.0241 13.4175 69.4787 13.6306C68.9332 13.8437 68.5241 14.1377 68.2514 14.5127C67.9787 14.8792 67.8381 15.3011 67.8295 15.7783C67.8125 16.1704 67.8892 16.5155 68.0597 16.8138C68.2386 17.1121 68.4943 17.3763 68.8267 17.6064C69.1676 17.828 69.5767 18.0241 70.054 18.1945C70.5312 18.365 71.0682 18.5141 71.6648 18.642L73.9148 19.1533C75.2102 19.4346 76.3523 19.8096 77.3409 20.2783C78.3381 20.7471 79.1733 21.3053 79.8466 21.953C80.5284 22.6008 81.044 23.3465 81.3935 24.1903C81.7429 25.034 81.9219 25.98 81.9304 27.0283C81.9219 28.6817 81.5043 30.1008 80.6775 31.2854C79.8508 32.4701 78.6619 33.3778 77.1108 34.0084C75.5682 34.6391 73.706 34.9545 71.5241 34.9545C69.3338 34.9545 67.4247 34.6263 65.7969 33.9701C64.169 33.3138 62.9034 32.3167 62 30.9786C61.0966 29.6405 60.6321 27.9488 60.6065 25.9033L66.6662 25.9033C66.7173 26.7471 66.9432 27.4502 67.3437 28.0127C67.7443 28.5752 68.294 29.0013 68.9929 29.2911C69.7003 29.5809 70.5185 29.7258 71.4474 29.7258C72.2997 29.7258 73.0241 29.6107 73.6207 29.3806C74.2258 29.1505 74.6903 28.8309 75.0142 28.4218C75.3381 28.0127 75.5043 27.5439 75.5128 27.0155C75.5043 26.5212 75.3508 26.0993 75.0525 25.7499C74.7543 25.392 74.294 25.0851 73.6719 24.8295C73.0582 24.5653 72.2741 24.3224 71.3196 24.1008L68.5838 23.4616C66.3168 22.9417 64.5312 22.1022 63.2273 20.9431C61.9233 19.7755 61.2756 18.1988 61.2841 16.213C61.2756 14.5937 61.7102 13.1746 62.5881 11.9559C63.4659 10.7371 64.6804 9.78685 66.2315 9.10503C67.7827 8.42321 69.5511 8.0823 71.5369 8.0823C73.5653 8.0823 75.3253 8.42747 76.8168 9.11781C78.3168 9.79963 79.4801 10.7584 80.3068 11.9942C81.1335 13.23 81.5554 14.6618 81.5724 16.2897L75.5128 16.2897ZM84.981 13.5795L84.981 8.44026L107.11 8.44026L107.11 13.5795L99.1713 13.5795L99.1713 34.6221L92.9327 34.6221L92.9327 13.5795L84.981 13.5795ZM117.24 8.44026L117.24 34.6221L110.912 34.6221L110.912 8.44026L117.24 8.44026ZM145.689 17.9261L139.297 17.9261C139.212 17.2698 139.037 16.6775 138.773 16.1491C138.509 15.6207 138.16 15.169 137.725 14.794C137.29 14.419 136.775 14.1334 136.178 13.9374C135.59 13.7329 134.938 13.6306 134.222 13.6306C132.952 13.6306 131.857 13.9417 130.937 14.5638C130.025 15.186 129.322 16.0851 128.827 17.2613C128.341 18.4374 128.099 19.8607 128.099 21.5312C128.099 23.2698 128.346 24.7272 128.84 25.9033C129.343 27.0709 130.046 27.953 130.949 28.5496C131.861 29.1377 132.939 29.4317 134.184 29.4317C134.883 29.4317 135.518 29.3422 136.089 29.1633C136.668 28.9843 137.175 28.7244 137.61 28.3834C138.053 28.034 138.415 27.6121 138.697 27.1178C138.986 26.615 139.187 26.0482 139.297 25.4175L145.689 25.4559C145.579 26.615 145.242 27.757 144.679 28.882C144.126 30.007 143.363 31.034 142.391 31.963C141.42 32.8834 140.235 33.6164 138.837 34.1619C137.448 34.7073 135.854 34.98 134.056 34.98C131.687 34.98 129.564 34.4601 127.689 33.4204C125.823 32.3721 124.349 30.8465 123.266 28.8437C122.184 26.8408 121.643 24.4033 121.643 21.5312C121.643 18.6505 122.192 16.2087 123.292 14.2059C124.391 12.203 125.878 10.6817 127.753 9.64196C129.628 8.60219 131.729 8.0823 134.056 8.0823C135.641 8.0823 137.107 8.30389 138.454 8.74708C139.8 9.18174 140.985 9.82094 142.008 10.6647C143.03 11.4999 143.861 12.5269 144.501 13.7457C145.14 14.9644 145.536 16.3579 145.689 17.9261Z" fill="#FF6928"/>
<path d="M164.13 34.6221L157.329 34.6221L166.163 8.44026L174.588 8.44026L183.422 34.6221L176.621 34.6221L170.471 15.0369L170.267 15.0369L164.13 34.6221ZM163.223 24.3181L177.439 24.3181L177.439 29.1249L163.223 29.1249L163.223 24.3181ZM193.28 8.44026L193.28 34.6221L186.952 34.6221L186.952 8.44026L193.28 8.44026Z" fill="#2D2825"/>
</g>
<defs>
<clipPath id="clip0_376_7419">
<rect width="205" height="43" fill="white"/>
</clipPath>
</defs>
</svg>
